<svg width="57" height="47" viewBox="0 0 57 47" fill="none" xmlns="http://www.w3.org/2000/svg">
<g clip-path="url(#clip0_587_939)">
<mask id="mask0_587_939" style="mask-type:luminance" maskUnits="userSpaceOnUse" x="0" y="0" width="58" height="47">
<path d="M0 0H57.0028V47H0V0Z" fill="white"/>
</mask>
<g mask="url(#mask0_587_939)">
<path fill-rule="evenodd" clip-rule="evenodd" d="M0 0H81.225V3.6168H0V0ZM0 7.23359H81.225V10.8504H0V7.23359ZM0 14.458H81.225V18.084H0V14.458ZM0 21.6916H81.225V25.3084H0V21.6916ZM0 28.9252H81.225V32.542H0V28.9252ZM0 36.1496H81.225V39.7664H0V36.1496ZM0 43.3832H81.225V47H0V43.3832Z" fill="#BD3D44"/>
<path fill-rule="evenodd" clip-rule="evenodd" d="M0 3.6167H81.225V7.2335H0V3.6167ZM0 10.8503H81.225V14.4579H0V10.8503ZM0 18.0747H81.225V21.6915H0V18.0747ZM0 25.3083H81.225V28.9251H0V25.3083ZM0 32.5419H81.225V36.1587H0V32.5419ZM0 39.7663H81.225V43.3831H0V39.7663Z" fill="white"/>
<path fill-rule="evenodd" clip-rule="evenodd" d="M0 0H32.4883V25.3084H0V0Z" fill="#192F5D"/>
<path fill-rule="evenodd" clip-rule="evenodd" d="M2.70557 1.08325L3.00615 2.08384H3.95801L3.18984 2.69888L3.48208 3.70864L2.70557 3.08442L1.9374 3.69946L2.22964 2.69888L1.45312 2.08384H2.42168L2.70557 1.08325ZM8.12446 1.08325L8.4167 2.08384H9.3769L8.60039 2.69888L8.89263 3.70864L8.12446 3.08442L7.34795 3.69946L7.64019 2.69888L6.87202 2.08384H7.82388L8.12446 1.08325ZM13.535 1.08325L13.8356 2.08384H14.7791L14.0109 2.69888L14.3032 3.70864L13.5267 3.08442L12.7585 3.69946L13.0507 2.69888L12.2742 2.08384H13.2344L13.535 1.08325ZM18.9539 1.08325L19.2461 2.08384H20.2063L19.4298 2.69888L19.7304 3.70864L18.9539 3.08442L18.1774 3.69946L18.478 2.69888L17.7015 2.08384H18.6533L18.9539 1.08325ZM24.3645 1.08325L24.665 2.08384H25.6169L24.8487 2.69888L25.141 3.70864L24.3645 3.08442L23.5963 3.69946L23.8885 2.69888L23.1204 2.08384H24.0722L24.3645 1.08325ZM29.7834 1.08325L30.0756 2.08384H31.0358L30.2593 2.69888L30.5599 3.70864L29.7834 3.08442L29.0068 3.69946L29.3074 2.69888L28.5309 2.08384H29.4911L29.7834 1.08325ZM5.41919 3.61685L5.71143 4.61743H6.67163L5.89512 5.23247L6.179 6.23306L5.42754 5.61802L4.65103 6.23306L4.92656 5.23247L4.1751 4.61743H5.12695L5.41919 3.61685ZM10.8297 3.61685L11.1303 4.61743H12.0822L11.3057 5.23247L11.6062 6.23306L10.8297 5.61802L10.0532 6.23306L10.3538 5.23247L9.57729 4.61743H10.5375L10.8297 3.61685ZM16.2486 3.61685L16.5409 4.61743H17.5011L16.7246 5.23247L17.0168 6.23306L16.2486 5.61802L15.4721 6.23306L15.7644 5.23247L14.9962 4.61743H15.948L16.2486 3.61685ZM21.6592 3.61685L21.9598 4.61743H22.9116L22.1351 5.23247L22.4357 6.23306L21.6592 5.61802L20.891 6.23306L21.1833 5.23247L20.4067 4.61743H21.3753L21.6592 3.61685ZM27.0781 3.61685L27.3703 4.61743H28.3305L27.554 5.23247L27.8462 6.23306L27.0781 5.61802L26.3016 6.23306L26.5938 5.23247L25.8256 4.61743H26.7775L27.0781 3.61685ZM2.70557 6.14126L3.00615 7.1602H3.95801L3.18984 7.77524L3.48208 8.77583L2.70557 8.15161L1.9374 8.77583L2.22964 7.76606L1.45312 7.15103H2.42168L2.70557 6.14126ZM8.12446 6.14126L8.4167 7.15103H9.3769L8.60039 7.76606L8.89263 8.76665L8.12446 8.14243L7.34795 8.76665L7.64019 7.75688L6.87202 7.14185H7.82388L8.12446 6.14126ZM13.535 6.14126L13.8356 7.15103H14.7791L14.0109 7.76606L14.3032 8.76665L13.5267 8.14243L12.7585 8.76665L13.0507 7.75688L12.2742 7.14185H13.2344L13.535 6.14126ZM18.9539 6.14126L19.2461 7.15103H20.2063L19.4298 7.76606L19.7304 8.76665L18.9539 8.14243L18.1774 8.76665L18.478 7.75688L17.7015 7.14185H18.6533L18.9539 6.14126ZM24.3645 6.14126L24.665 7.15103H25.6169L24.8487 7.76606L25.141 8.76665L24.3645 8.14243L23.5963 8.76665L23.8885 7.75688L23.1204 7.14185H24.0722L24.3645 6.14126ZM29.7834 6.14126L30.0756 7.15103H31.0358L30.2593 7.76606L30.5599 8.76665L29.7834 8.14243L29.0068 8.76665L29.3074 7.75688L28.5309 7.14185H29.4911L29.7834 6.14126ZM5.41919 8.67485L5.71143 9.67544H6.67163L5.89512 10.2905L6.18735 11.3002L5.41919 10.676L4.64268 11.2911L4.93491 10.2905L4.16675 9.67544H5.1186L5.41919 8.67485ZM10.8297 8.67485L11.1303 9.67544H12.0822L11.3057 10.2905L11.6062 11.3002L10.8297 10.676L10.0532 11.2911L10.3538 10.2905L9.57729 9.67544H10.5375L10.8297 8.67485ZM16.2486 8.67485L16.5409 9.67544H17.5011L16.7246 10.2905L17.0168 11.3002L16.2486 10.676L15.4721 11.2911L15.7644 10.2905L14.9962 9.67544H15.948L16.2486 8.67485ZM21.6592 8.67485L21.9598 9.67544H22.9116L22.1435 10.2905L22.4357 11.3002L21.6592 10.676L20.891 11.2911L21.1833 10.2905L20.4067 9.67544H21.3753L21.6592 8.67485ZM27.0781 8.67485L27.3703 9.67544H28.3305L27.554 10.2905L27.8462 11.3002L27.0781 10.676L26.3016 11.2911L26.5938 10.2905L25.8256 9.67544H26.7775L27.0781 8.67485ZM2.70557 11.2084L3.00615 12.209H3.95801L3.18984 12.8241L3.48208 13.8338L2.70557 13.2096L1.9374 13.8247L2.22964 12.8241L1.45312 12.209H2.42168L2.70557 11.2084ZM8.12446 11.2084L8.4167 12.209H9.3769L8.60039 12.8241L8.89263 13.8247L8.12446 13.2096L7.34795 13.8247L7.64019 12.8241L6.87202 12.209H7.82388L8.12446 11.2084ZM13.535 11.2084L13.8356 12.209H14.7791L14.0109 12.8241L14.3032 13.8338L13.5267 13.2096L12.7585 13.8247L13.0507 12.8241L12.2742 12.209H13.2344L13.535 11.2084ZM18.9539 11.2084L19.2461 12.209H20.2063L19.4298 12.8241L19.7304 13.8338L18.9539 13.2096L18.1774 13.8247L18.478 12.8241L17.7015 12.209H18.6533L18.9539 11.2084ZM24.3645 11.2084L24.665 12.209H25.6169L24.8487 12.8241L25.141 13.8338L24.3645 13.2096L23.5963 13.8247L23.8885 12.8241L23.1204 12.209H24.0722L24.3645 11.2084ZM29.7834 11.2084L30.0756 12.209H31.0358L30.2593 12.8241L30.5599 13.8338L29.7834 13.2096L29.0068 13.8247L29.3074 12.8241L28.5309 12.209H29.4911L29.7834 11.2084ZM5.41919 13.742L5.71143 14.7426H6.67163L5.89512 15.3577L6.18735 16.3583L5.41919 15.734L4.64268 16.3583L4.93491 15.3485L4.16675 14.7334H5.1186L5.41919 13.742ZM10.8297 13.742L11.1303 14.7426H12.0822L11.3057 15.3577L11.6062 16.3583L10.8297 15.734L10.0532 16.3583L10.3538 15.3485L9.57729 14.7334H10.5375L10.8297 13.742ZM16.2486 13.742L16.5409 14.7426H17.5011L16.7246 15.3577L17.0168 16.3583L16.2486 15.734L15.4721 16.3583L15.7644 15.3485L14.9962 14.7334H15.948L16.2486 13.742ZM21.6592 13.742L21.9598 14.7426H22.9116L22.1435 15.3577L22.4357 16.3583L21.6592 15.734L20.891 16.3583L21.1833 15.3485L20.4067 14.7334H21.3753L21.6592 13.742ZM27.0781 13.742L27.3703 14.7426H28.3305L27.554 15.3577L27.8462 16.3583L27.0781 15.734L26.3016 16.3583L26.5938 15.3485L25.8256 14.7334H26.7775L27.0781 13.742ZM2.70557 16.2665L3.00615 17.2762H3.95801L3.18984 17.8913L3.48208 18.8827L2.70557 18.2676L1.9374 18.8827L2.22964 17.8821L1.45312 17.267H2.42168L2.70557 16.2665ZM8.12446 16.2665L8.4167 17.2762H9.3769L8.60039 17.8913L8.90098 18.8827L8.12446 18.2676L7.34795 18.8827L7.64853 17.8821L6.87202 17.267H7.82388L8.12446 16.2665ZM13.535 16.2665L13.8356 17.2762H14.7791L14.0109 17.8913L14.3032 18.8827L13.5267 18.2676L12.7585 18.8827L13.0507 17.8821L12.2742 17.267H13.2344L13.535 16.2665ZM18.9539 16.2665L19.2461 17.2762H20.2063L19.4298 17.8913L19.7304 18.8827L18.9539 18.2676L18.1774 18.8827L18.478 17.8821L17.7015 17.267H18.6533L18.9539 16.2665ZM24.3645 16.2665L24.665 17.2762H25.6169L24.8487 17.8913L25.141 18.8827L24.3645 18.2676L23.5963 18.8827L23.8885 17.8821L23.1204 17.267H24.0722L24.3645 16.2665ZM29.7834 16.2665L30.0756 17.2762H31.0358L30.2593 17.8913L30.5599 18.8827L29.7834 18.2676L29.0068 18.8827L29.3074 17.8821L28.5309 17.267H29.4911L29.7834 16.2665ZM5.41919 18.8L5.71143 19.8006H6.67163L5.89512 20.4157L6.18735 21.4254L5.41919 20.8012L4.64268 21.4163L4.93491 20.4157L4.16675 19.8006H5.1186L5.41919 18.8ZM10.8297 18.8L11.1303 19.8006H12.0822L11.3057 20.4157L11.6062 21.4254L10.8297 20.8012L10.0532 21.4163L10.3538 20.4157L9.57729 19.8006H10.5375L10.8297 18.8ZM16.2486 18.8L16.5409 19.8006H17.5011L16.7246 20.4157L17.0168 21.4254L16.2486 20.8012L15.4721 21.4163L15.7644 20.4157L14.9962 19.8006H15.948L16.2486 18.8ZM21.6592 18.8L21.9598 19.8006H22.9116L22.1435 20.4157L22.4357 21.4254L21.6592 20.8012L20.891 21.4163L21.1833 20.4157L20.4067 19.8006H21.3753L21.6592 18.8ZM27.0781 18.8L27.3703 19.8006H28.3305L27.554 20.4157L27.8462 21.4254L27.0781 20.8012L26.3016 21.4163L26.5938 20.4157L25.8256 19.8006H26.7775L27.0781 18.8ZM2.70557 21.3336L3.00615 22.3342H3.95801L3.18984 22.9493L3.48208 23.9499L2.70557 23.3348L1.9374 23.9499L2.22964 22.9401L1.45312 22.325H2.42168L2.70557 21.3336ZM8.12446 21.3336L8.4167 22.3342H9.3769L8.60039 22.9493L8.90098 23.9499L8.12446 23.3348L7.34795 23.9499L7.64853 22.9401L6.87202 22.325H7.82388L8.12446 21.3336ZM13.535 21.3336L13.8356 22.3342H14.7791L14.0276 22.9493L14.3199 23.9499L13.5434 23.3348L12.7752 23.9499L13.0674 22.9401L12.2909 22.325H13.2511L13.535 21.3336ZM18.9539 21.3336L19.2461 22.3342H20.2063L19.4298 22.9493L19.7304 23.9499L18.9539 23.3348L18.1774 23.9499L18.478 22.9401L17.7015 22.325H18.6533L18.9539 21.3336ZM24.3645 21.3336L24.665 22.3342H25.6169L24.8487 22.9493L25.141 23.9499L24.3645 23.3348L23.5963 23.9499L23.8885 22.9401L23.1204 22.325H24.0722L24.3645 21.3336ZM29.7834 21.3336L30.0756 22.3342H31.0358L30.2593 22.9493L30.5599 23.9499L29.7834 23.3348L29.0068 23.9499L29.3074 22.9401L28.5309 22.325H29.4911L29.7834 21.3336Z" fill="white"/>
</g>
</g>
<defs>
<clipPath id="clip0_587_939">
<rect width="57" height="47" rx="8" fill="white"/>
</clipPath>
</defs>
</svg>
